<?xml version="1.0" encoding="utf-8"?>
<svg width="311px" height="300px" viewBox="0 0 311 300" version="1.1" xmlns:xlink="http://www.w3.org/1999/xlink" xmlns="http://www.w3.org/2000/svg">
  <defs>
    <linearGradient gradientUnits="userSpaceOnUse" x1="0" y1="0" x2="198" y2="158" id="gradient_1">
      <stop offset="0%" stop-color="#000000" />
      <stop offset="100%" stop-color="#B3B3DE" />
    </linearGradient>
    <linearGradient gradientUnits="userSpaceOnUse" x1="71.88148" y1="0" x2="197.99988" y2="183.99998" id="gradient_2">
      <stop offset="0%" stop-color="#B3B3DE" />
      <stop offset="100%" stop-color="#000000" />
    </linearGradient>
    <path d="M35.999 56L233.001 56Q233.885 56 234.767 56.0434Q235.65 56.0867 236.53 56.1734Q237.409 56.26 238.283 56.3896Q239.157 56.5193 240.024 56.6917Q240.891 56.8641 241.748 57.0788Q242.605 57.2936 243.451 57.5501Q244.297 57.8066 245.129 58.1044Q245.961 58.4021 246.777 58.7403Q247.594 59.0784 248.393 59.4563Q249.191 59.8341 249.971 60.2507Q250.75 60.6673 251.508 61.1216Q252.266 61.5759 253.001 62.0669Q253.736 62.5579 254.446 63.0843Q255.155 63.6108 255.839 64.1714Q256.522 64.732 257.176 65.3255Q257.831 65.919 258.456 66.5439Q259.081 67.1687 259.674 67.8235Q260.268 68.4783 260.829 69.1615Q261.389 69.8446 261.916 70.5544Q262.442 71.2642 262.933 71.999Q263.424 72.7338 263.878 73.4918Q264.333 74.2498 264.749 75.0292Q265.166 75.8086 265.544 76.6074Q265.922 77.4063 266.26 78.2228Q266.598 79.0392 266.896 79.8713Q267.193 80.7034 267.45 81.549Q267.706 82.3947 267.921 83.252Q268.136 84.1092 268.308 84.9759Q268.481 85.8427 268.61 86.7168Q268.74 87.591 268.827 88.4705Q268.913 89.35 268.957 90.2326Q269 91.1153 269 91.999L269 200.001Q269 200.885 268.957 201.767Q268.913 202.65 268.827 203.53Q268.74 204.409 268.61 205.283Q268.481 206.157 268.308 207.024Q268.136 207.891 267.921 208.748Q267.706 209.605 267.45 210.451Q267.193 211.297 266.896 212.129Q266.598 212.961 266.26 213.777Q265.922 214.594 265.544 215.393Q265.166 216.191 264.749 216.971Q264.333 217.75 263.878 218.508Q263.424 219.266 262.933 220.001Q262.442 220.736 261.916 221.446Q261.389 222.155 260.829 222.839Q260.268 223.522 259.674 224.176Q259.081 224.831 258.456 225.456Q257.831 226.081 257.176 226.674Q256.522 227.268 255.839 227.829Q255.155 228.389 254.446 228.916Q253.736 229.442 253.001 229.933Q252.266 230.424 251.508 230.878Q250.75 231.333 249.971 231.749Q249.191 232.166 248.393 232.544Q247.594 232.922 246.777 233.26Q245.961 233.598 245.129 233.896Q244.297 234.193 243.451 234.45Q242.605 234.706 241.748 234.921Q240.891 235.136 240.024 235.308Q239.157 235.481 238.283 235.61Q237.409 235.74 236.53 235.827Q235.65 235.913 234.767 235.957Q233.885 236 233.001 236L35.999 236Q35.1153 236 34.2326 235.957Q33.3499 235.913 32.4705 235.827Q31.591 235.74 30.7168 235.61Q29.8427 235.481 28.9759 235.308Q28.1092 235.136 27.252 234.921Q26.3947 234.706 25.549 234.45Q24.7034 234.193 23.8713 233.896Q23.0392 233.598 22.2228 233.26Q21.4063 232.922 20.6074 232.544Q19.8086 232.166 19.0292 231.749Q18.2498 231.333 17.4918 230.878Q16.7338 230.424 15.999 229.933Q15.2642 229.442 14.5544 228.916Q13.8446 228.389 13.1615 227.829Q12.4783 227.268 11.8235 226.674Q11.1688 226.081 10.5439 225.456Q9.91897 224.831 9.3255 224.176Q8.73203 223.522 8.1714 222.839Q7.61077 222.155 7.08433 221.446Q6.5579 220.736 6.06693 220.001Q5.57595 219.266 5.12163 218.508Q4.6673 217.75 4.25072 216.971Q3.83413 216.191 3.45629 215.393Q3.07845 214.594 2.74026 213.777Q2.40207 212.961 2.10436 212.129Q1.80664 211.297 1.5501 210.451Q1.29357 209.605 1.07884 208.748Q0.864117 207.891 0.691711 207.024Q0.519304 206.157 0.389635 205.283Q0.259965 204.409 0.173345 203.53Q0.0867247 202.65 0.0433624 201.767Q0 200.885 0 200.001L0 91.999Q0 91.1153 0.0433624 90.2326Q0.0867247 89.35 0.173345 88.4705Q0.259965 87.591 0.389635 86.7169Q0.519304 85.8427 0.691711 84.9759Q0.864117 84.1092 1.07884 83.252Q1.29357 82.3947 1.5501 81.549Q1.80664 80.7034 2.10436 79.8713Q2.40207 79.0392 2.74026 78.2228Q3.07845 77.4063 3.45629 76.6074Q3.83413 75.8086 4.25072 75.0292Q4.6673 74.2498 5.12163 73.4918Q5.57595 72.7338 6.06692 71.999Q6.5579 71.2642 7.08433 70.5544Q7.61077 69.8446 8.1714 69.1615Q8.73203 68.4783 9.3255 67.8235Q9.91897 67.1687 10.5439 66.5439Q11.1688 65.919 11.8235 65.3255Q12.4783 64.732 13.1615 64.1714Q13.8446 63.6108 14.5544 63.0843Q15.2642 62.5579 15.999 62.0669Q16.7338 61.576 17.4918 61.1216Q18.2498 60.6673 19.0292 60.2507Q19.8086 59.8341 20.6074 59.4563Q21.4063 59.0784 22.2228 58.7403Q23.0392 58.4021 23.8713 58.1044Q24.7034 57.8066 25.549 57.5501Q26.3947 57.2936 27.252 57.0788Q28.1092 56.8641 28.9759 56.6917Q29.8427 56.5193 30.7168 56.3896Q31.591 56.26 32.4705 56.1733Q33.3499 56.0867 34.2326 56.0434Q35.1153 56 35.999 56Z" id="path_1" />
    <clipPath id="clip_1">
      <use xlink:href="#path_1" />
    </clipPath>
  </defs>
  <g id="logo-Copy-4" transform="translate(1933 534)">
    <path d="M28.8705 34.1676L156.34 8.41614Q157.283 8.22564 158.235 8.08757Q159.187 7.94949 160.145 7.86427Q161.104 7.77904 162.065 7.74693Q163.027 7.71482 163.989 7.73591Q164.95 7.75701 165.909 7.83125Q166.869 7.90548 167.822 8.03264Q168.776 8.1598 169.721 8.33948Q170.666 8.51917 171.6 8.75083Q172.534 8.9825 173.453 9.26543Q174.372 9.54836 175.275 9.8817Q176.177 10.215 177.06 10.5978Q177.943 10.9805 178.803 11.4114Q179.663 11.8424 180.498 12.3202Q181.333 12.798 182.14 13.3213Q182.947 13.8446 183.725 14.4117Q184.502 14.9788 185.246 15.588Q185.991 16.1971 186.701 16.8466Q187.41 17.496 188.083 18.1837Q188.756 18.8714 189.39 19.5952Q190.023 20.319 190.616 21.0768Q191.209 21.8345 191.759 22.6239Q192.309 23.4133 192.814 24.2318Q193.319 25.0504 193.779 25.8956Q194.238 26.7409 194.65 27.6103Q195.062 28.4796 195.425 29.3704Q195.789 30.2612 196.102 31.1708Q196.416 32.0803 196.678 33.0058Q196.941 33.9313 197.152 34.8698Q197.363 35.8084 197.522 36.7572Q197.681 37.7061 197.787 38.6622Q197.894 39.6184 197.947 40.5789Q198 41.5395 198 42.5015L198 85.0055L198 122.001Q198 122.885 197.957 123.767Q197.913 124.65 197.827 125.53Q197.74 126.409 197.61 127.283Q197.481 128.157 197.308 129.024Q197.136 129.891 196.921 130.748Q196.706 131.605 196.45 132.451Q196.193 133.297 195.896 134.129Q195.598 134.961 195.26 135.777Q194.922 136.594 194.544 137.393Q194.166 138.191 193.749 138.971Q193.333 139.75 192.878 140.508Q192.424 141.266 191.933 142.001Q191.442 142.736 190.916 143.446Q190.389 144.155 189.829 144.839Q189.268 145.522 188.674 146.176Q188.081 146.831 187.456 147.456Q186.831 148.081 186.176 148.674Q185.522 149.268 184.839 149.829Q184.155 150.389 183.446 150.916Q182.736 151.442 182.001 151.933Q181.266 152.424 180.508 152.878Q179.75 153.333 178.971 153.749Q178.191 154.166 177.393 154.544Q176.594 154.922 175.777 155.26Q174.961 155.598 174.129 155.896Q173.297 156.193 172.451 156.45Q171.605 156.706 170.748 156.921Q169.891 157.136 169.024 157.308Q168.157 157.481 167.283 157.61Q166.409 157.74 165.53 157.827Q164.65 157.913 163.767 157.957Q162.885 158 162.001 158L35.999 158Q35.1153 158 34.2326 157.957Q33.3499 157.913 32.4705 157.827Q31.591 157.74 30.7168 157.61Q29.8427 157.481 28.9759 157.308Q28.1092 157.136 27.252 156.921Q26.3947 156.706 25.549 156.45Q24.7034 156.193 23.8713 155.896Q23.0392 155.598 22.2228 155.26Q21.4063 154.922 20.6074 154.544Q19.8086 154.166 19.0292 153.749Q18.2498 153.333 17.4918 152.878Q16.7338 152.424 15.999 151.933Q15.2642 151.442 14.5544 150.916Q13.8446 150.389 13.1615 149.829Q12.4783 149.268 11.8235 148.674Q11.1688 148.081 10.5439 147.456Q9.91897 146.831 9.3255 146.176Q8.73203 145.522 8.1714 144.839Q7.61077 144.155 7.08433 143.446Q6.5579 142.736 6.06693 142.001Q5.57595 141.266 5.12163 140.508Q4.6673 139.75 4.25072 138.971Q3.83413 138.191 3.45629 137.393Q3.07845 136.594 2.74026 135.777Q2.40207 134.961 2.10436 134.129Q1.80664 133.297 1.5501 132.451Q1.29357 131.605 1.07884 130.748Q0.864117 129.891 0.691711 129.024Q0.519304 128.157 0.389635 127.283Q0.259965 126.409 0.173345 125.53Q0.0867247 124.65 0.0433624 123.767Q0 122.885 0 122.001L0 69.4537Q0 68.6822 0.0330567 67.9114Q0.0661134 67.1405 0.132166 66.3718Q0.198219 65.6031 0.297146 64.8379Q0.396074 64.0728 0.527694 63.3125Q0.659315 62.5523 0.823386 61.7984Q0.987458 61.0445 1.18368 60.2983Q1.3799 59.5521 1.60791 58.8151Q1.83592 58.078 2.09531 57.3514Q2.35469 56.6247 2.64496 55.9099Q2.93524 55.195 3.25588 54.4933Q3.57652 53.7915 3.92693 53.1041Q4.27734 52.4167 4.65688 51.745Q5.03642 51.0733 5.44439 50.4184Q5.85236 49.7635 6.28801 49.1268Q6.72367 48.49 7.1862 47.8725Q7.64874 47.2549 8.13731 46.6578Q8.62588 46.0607 9.13959 45.485Q9.65329 44.9093 10.1912 44.3562Q10.7291 43.8031 11.2902 43.2735Q11.8513 42.744 12.4346 42.2389Q13.0178 41.7339 13.6222 41.2543Q14.2266 40.7747 14.851 40.3215Q15.4754 39.8682 16.1186 39.4421Q16.7618 39.016 17.4227 38.6179Q18.0836 38.2198 18.7609 37.8503Q19.4382 37.4809 20.1308 37.1408Q20.8233 36.8007 21.5298 36.4906Q22.2363 36.1805 22.9554 35.9009Q23.6745 35.6213 24.4049 35.3729Q25.1354 35.1244 25.8758 34.9074Q26.6162 34.6904 27.3652 34.5054Q28.1142 34.3204 28.8705 34.1676L28.8705 34.1676Z" id="Rectangle-Copy-2" fill="url(#gradient_1)" fill-rule="evenodd" stroke="none" />
    <path d="M136.999 104L263.001 104Q263.885 104 264.767 104.043Q265.65 104.087 266.53 104.173Q267.409 104.26 268.283 104.39Q269.157 104.519 270.024 104.692Q270.891 104.864 271.748 105.079Q272.605 105.294 273.451 105.55Q274.297 105.807 275.129 106.104Q275.961 106.402 276.777 106.74Q277.594 107.078 278.392 107.456Q279.191 107.834 279.971 108.251Q280.75 108.667 281.508 109.122Q282.266 109.576 283.001 110.067Q283.736 110.558 284.446 111.084Q285.155 111.611 285.839 112.171Q286.522 112.732 287.176 113.325Q287.831 113.919 288.456 114.544Q289.081 115.169 289.674 115.824Q290.268 116.478 290.829 117.161Q291.389 117.845 291.916 118.554Q292.442 119.264 292.933 119.999Q293.424 120.734 293.878 121.492Q294.333 122.25 294.749 123.029Q295.166 123.809 295.544 124.607Q295.922 125.406 296.26 126.223Q296.598 127.039 296.896 127.871Q297.193 128.703 297.45 129.549Q297.706 130.395 297.921 131.252Q298.136 132.109 298.308 132.976Q298.481 133.843 298.61 134.717Q298.74 135.591 298.827 136.47Q298.913 137.35 298.957 138.233Q299 139.115 299 139.999L299 246.965Q299 247.922 298.949 248.878Q298.898 249.834 298.797 250.786Q298.695 251.737 298.543 252.682Q298.391 253.628 298.189 254.563Q297.987 255.499 297.735 256.422Q297.484 257.346 297.184 258.255Q296.884 259.164 296.536 260.056Q296.187 260.947 295.792 261.819Q295.397 262.691 294.957 263.541Q294.516 264.39 294.031 265.216Q293.545 266.041 293.017 266.839Q292.488 267.637 291.918 268.406Q291.348 269.175 290.738 269.912Q290.128 270.65 289.479 271.354Q288.831 272.058 288.146 272.727Q287.461 273.395 286.741 274.026Q286.022 274.658 285.27 275.25Q284.518 275.842 283.735 276.393Q282.953 276.944 282.142 277.453Q281.331 277.962 280.495 278.428Q279.658 278.893 278.798 279.313Q277.938 279.733 277.056 280.107Q276.175 280.48 275.275 280.807Q274.375 281.133 273.46 281.411Q272.544 281.689 271.614 281.918Q270.685 282.147 269.745 282.327Q268.804 282.506 267.856 282.635Q266.907 282.764 265.953 282.843Q264.999 282.921 264.043 282.949Q263.086 282.976 262.129 282.953Q261.172 282.93 260.217 282.856Q259.263 282.782 258.314 282.657L132.312 266.112Q131.509 266.006 130.711 265.865Q129.913 265.723 129.123 265.546Q128.332 265.369 127.55 265.156Q126.768 264.943 125.997 264.696Q125.225 264.448 124.466 264.166Q123.706 263.884 122.96 263.568Q122.214 263.252 121.483 262.903Q120.752 262.553 120.037 262.172Q119.322 261.79 118.626 261.376Q117.929 260.963 117.251 260.518Q116.574 260.074 115.917 259.599Q115.26 259.125 114.626 258.621Q113.991 258.118 113.379 257.586Q112.768 257.055 112.181 256.496Q111.594 255.937 111.033 255.353Q110.472 254.769 109.937 254.159Q109.403 253.55 108.897 252.918Q108.39 252.285 107.913 251.631Q107.436 250.976 106.988 250.301Q106.541 249.625 106.124 248.93Q105.707 248.235 105.322 247.522Q104.937 246.809 104.585 246.08Q104.232 245.35 103.913 244.606Q103.594 243.861 103.308 243.103Q103.023 242.344 102.772 241.574Q102.521 240.804 102.305 240.023Q102.088 239.242 101.908 238.452Q101.727 237.662 101.582 236.865Q101.437 236.068 101.328 235.265Q101.219 234.462 101.146 233.655Q101.073 232.848 101.036 232.039Q101 231.229 101 230.419L101 139.999Q101 139.115 101.043 138.233Q101.087 137.35 101.173 136.47Q101.26 135.591 101.39 134.717Q101.519 133.843 101.692 132.976Q101.864 132.109 102.079 131.252Q102.294 130.395 102.55 129.549Q102.807 128.703 103.104 127.871Q103.402 127.039 103.74 126.223Q104.078 125.406 104.456 124.607Q104.834 123.809 105.251 123.029Q105.667 122.25 106.122 121.492Q106.576 120.734 107.067 119.999Q107.558 119.264 108.084 118.554Q108.611 117.845 109.171 117.161Q109.732 116.478 110.325 115.824Q110.919 115.169 111.544 114.544Q112.169 113.919 112.824 113.325Q113.478 112.732 114.161 112.171Q114.845 111.611 115.554 111.084Q116.264 110.558 116.999 110.067Q117.734 109.576 118.492 109.122Q119.25 108.667 120.029 108.251Q120.809 107.834 121.607 107.456Q122.406 107.078 123.223 106.74Q124.039 106.402 124.871 106.104Q125.703 105.807 126.549 105.55Q127.395 105.294 128.252 105.079Q129.109 104.864 129.976 104.692Q130.843 104.519 131.717 104.39Q132.591 104.26 133.47 104.173Q134.35 104.087 135.233 104.043Q136.115 104 136.999 104Z" id="Rectangle-Copy" fill="url(#gradient_2)" fill-rule="evenodd" stroke="none" />
    <g id="Rectangle">
      <use stroke="none" fill="#B3B3DE" xlink:href="#path_1" fill-rule="evenodd" />
      <g clip-path="url(#clip_1)">
        <use xlink:href="#path_1" fill="none" stroke="#000000" stroke-width="2" />
      </g>
    </g>
    <path d="M73.1975 97.9732C72.2247 98.0039 71.301 98.4429 70.6222 99.1974L55.7895 115.244L48.4488 107.302C47.5093 106.244 46.1141 105.817 44.8014 106.188C43.4886 106.558 42.4635 107.667 42.1213 109.087C41.779 110.507 42.1732 112.017 43.1518 113.033L53.141 123.84C54.6039 125.422 56.9751 125.422 58.438 123.84L75.9192 104.928C77.0252 103.763 77.3572 101.982 76.7553 100.444C76.1533 98.9062 74.7408 97.9251 73.1975 97.9732L73.1975 97.9732ZM85.7572 108.817C84.4063 108.796 83.1497 109.564 82.4687 110.826C81.7877 112.089 81.7877 113.65 82.4687 114.912C83.1497 116.175 84.4063 116.943 85.7572 116.922L138.201 116.922C139.552 116.943 140.808 116.175 141.489 114.912C142.17 113.65 142.17 112.089 141.489 110.826C140.808 109.564 139.552 108.796 138.201 108.817L85.7572 108.817L85.7572 108.817ZM73.1975 134.446C72.2247 134.477 71.301 134.916 70.6222 135.67L55.7895 151.717L48.4488 143.775C47.5093 142.716 46.1141 142.29 44.8014 142.66C43.4886 143.03 42.4635 144.14 42.1213 145.56C41.779 146.98 42.1732 148.489 43.1518 149.506L53.141 160.312C54.6039 161.894 56.9751 161.894 58.438 160.312L75.9192 141.401C77.0252 140.235 77.3572 138.455 76.7553 136.917C76.1533 135.379 74.7408 134.398 73.1975 134.446L73.1975 134.446ZM85.7572 145.29C84.4063 145.269 83.1497 146.037 82.4687 147.299C81.7877 148.561 81.7877 150.123 82.4687 151.385C83.1497 152.647 84.4063 153.415 85.7572 153.395L138.201 153.395C139.552 153.415 140.808 152.647 141.489 151.385C142.17 150.123 142.17 148.561 141.489 147.299C140.808 146.037 139.552 145.269 138.201 145.29L85.7572 145.29L85.7572 145.29ZM73.1975 170.919C72.2247 170.949 71.301 171.388 70.6222 172.143L55.7895 188.189L48.4488 180.248C47.5093 179.189 46.1141 178.763 44.8014 179.133C43.4886 179.503 42.4635 180.612 42.1213 182.032C41.779 183.452 42.1732 184.962 43.1518 185.978L53.141 196.785C54.6039 198.367 56.9751 198.367 58.438 196.785L75.9192 177.873C77.0252 176.708 77.3572 174.928 76.7553 173.39C76.1533 171.852 74.7408 170.87 73.1975 170.919L73.1975 170.919ZM85.7572 181.762C84.4063 181.742 83.1497 182.509 82.4687 183.772C81.7877 185.034 81.7877 186.595 82.4687 187.858C83.1497 189.12 84.4063 189.888 85.7572 189.867L138.201 189.867C139.552 189.888 140.808 189.12 141.489 187.858C142.17 186.595 142.17 185.034 141.489 183.772C140.808 182.509 139.552 181.742 138.201 181.762L85.7572 181.762L85.7572 181.762Z" id="Shape-Copy" fill="#0A0303" fill-rule="evenodd" stroke="none" />
    <g id="k" fill="#0A0303" transform="translate(150.54309 72.00003)">
      <path d="M74.25 118.762L66.75 118.762L37.625 84.1372L11.375 120.137L11.375 37.5122L17 37.5122L17 102.637L64.375 37.5122L71.5 37.5122L41 79.2622L74.25 118.762Z" />
    </g>
  </g>
</svg>